<?xml version="1.0" standalone="no"?>
<!DOCTYPE svg PUBLIC "-//W3C//DTD SVG 20010904//EN"
 "http://www.w3.org/TR/2001/REC-SVG-20010904/DTD/svg10.dtd">
<svg version="1.0" xmlns="http://www.w3.org/2000/svg"
 width="1280.000000pt" height="1280.000000pt" viewBox="0 0 1280.000000 1280.000000"
 preserveAspectRatio="xMidYMid meet">
<metadata>
Created by potrace 1.11, written by Peter Selinger 2001-2013
</metadata>
<g transform="translate(0.000000,1280.000000) scale(0.100000,-0.100000)"
fill="#000000" stroke="none">
<path d="M11699 12796 c-2 -2 -29 -6 -59 -9 -30 -3 -113 -15 -185 -26 -71 -11
-150 -22 -176 -25 -25 -3 -52 -7 -60 -10 -7 -3 -36 -7 -64 -10 -27 -3 -72 -10
-100 -15 -27 -5 -75 -12 -105 -16 -30 -3 -80 -10 -110 -15 -30 -5 -77 -12
-105 -16 -61 -8 -87 -12 -91 -17 -2 -1 3 -45 11 -97 8 -52 17 -115 20 -139 3
-23 7 -55 9 -70 3 -14 10 -62 16 -106 6 -44 13 -91 15 -105 2 -14 6 -45 10
-70 3 -25 8 -63 11 -85 3 -22 7 -51 9 -65 2 -14 7 -45 11 -70 4 -25 8 -56 9
-70 2 -14 8 -54 13 -90 6 -36 13 -87 17 -115 3 -27 8 -57 10 -65 2 -8 7 -42
11 -75 7 -69 7 -65 28 -210 18 -121 27 -180 31 -210 1 -11 8 -56 14 -100 6
-45 14 -99 16 -120 3 -22 9 -65 14 -95 6 -30 12 -77 15 -105 3 -27 8 -61 10
-75 3 -14 7 -43 10 -65 17 -128 22 -149 34 -141 10 6 48 13 122 21 30 3 66 8
80 10 26 5 71 11 155 20 28 4 57 8 65 10 8 2 40 7 70 10 56 6 70 8 150 20 60
9 85 12 145 20 56 7 110 14 140 19 11 2 48 7 82 11 l63 8 -5 39 c-3 22 -7 52
-9 67 -3 14 -10 62 -16 107 -6 44 -13 91 -15 105 -3 13 -7 42 -10 64 -13 103
-15 122 -20 145 -2 14 -7 47 -11 75 -3 27 -8 61 -10 75 -2 14 -6 41 -8 60 -2
19 -9 68 -15 108 -6 40 -13 91 -16 115 -3 23 -7 53 -10 67 -3 14 -7 48 -10 75
-3 28 -8 57 -10 65 -2 8 -7 38 -10 65 -3 28 -7 59 -9 71 -2 12 -7 45 -11 75
-3 30 -8 61 -10 69 -2 8 -6 38 -10 65 -7 58 -9 74 -30 215 -8 58 -17 125 -20
150 -3 25 -7 52 -10 60 -2 8 -6 40 -10 70 -3 30 -7 64 -9 75 -2 11 -7 43 -10
70 -4 28 -11 79 -16 115 -5 36 -10 71 -10 78 0 11 -21 17 -31 8z"/>
<path d="M12089 10086 c-2 -2 -24 -7 -49 -10 -25 -3 -56 -8 -70 -11 -14 -3
-45 -7 -70 -10 -25 -3 -56 -7 -70 -10 -53 -8 -275 -41 -340 -50 -25 -3 -101
-15 -170 -25 -69 -10 -143 -21 -166 -25 -90 -13 -129 -22 -127 -31 1 -5 4 -38
8 -74 3 -35 8 -67 10 -70 2 -3 6 -27 9 -55 3 -27 8 -68 11 -90 3 -22 8 -56 11
-75 2 -19 9 -66 15 -105 5 -38 11 -81 14 -95 2 -14 6 -45 9 -70 3 -25 8 -54
10 -65 2 -11 7 -45 10 -76 4 -31 8 -65 10 -75 2 -11 7 -41 10 -69 4 -27 9 -61
11 -75 2 -14 6 -45 10 -70 4 -25 8 -56 10 -70 3 -14 6 -45 9 -70 3 -25 11 -88
20 -140 8 -52 17 -117 21 -145 5 -48 9 -74 20 -140 3 -16 7 -54 11 -83 3 -29
8 -63 10 -75 3 -12 7 -33 8 -47 2 -14 7 -50 10 -80 4 -30 9 -62 11 -70 2 -8 7
-44 10 -80 4 -36 8 -67 10 -70 1 -3 6 -30 9 -61 4 -31 9 -67 11 -80 3 -13 7
-43 10 -66 7 -61 15 -114 21 -147 4 -15 7 -45 9 -65 3 -35 11 -96 19 -136 5
-25 18 -122 21 -155 3 -32 14 -108 20 -140 3 -14 7 -43 10 -65 2 -22 8 -60 11
-85 4 -25 8 -54 9 -65 1 -11 4 -33 8 -50 3 -16 9 -52 12 -80 3 -27 7 -61 10
-75 2 -14 7 -45 10 -70 3 -25 7 -56 10 -70 3 -14 7 -49 11 -78 3 -29 7 -63 10
-75 2 -12 6 -49 10 -82 3 -33 7 -65 9 -72 7 -21 18 -246 18 -358 0 -108 -11
-324 -18 -335 -1 -3 -6 -32 -9 -65 -9 -82 -52 -273 -83 -370 -25 -78 -270
-701 -299 -759 -8 -16 -14 -33 -14 -38 0 -5 -11 -34 -25 -64 -14 -30 -25 -57
-25 -60 0 -3 -6 -20 -14 -37 -8 -18 -35 -86 -61 -152 -53 -133 -66 -166 -85
-210 -7 -16 -14 -34 -16 -40 -1 -5 -32 -84 -69 -175 -37 -91 -156 -388 -265
-661 -110 -273 -205 -509 -211 -525 -7 -16 -13 -31 -14 -34 -1 -3 -7 -18 -14
-35 -6 -16 -17 -43 -23 -60 -6 -16 -15 -34 -20 -39 -4 -6 -8 -16 -8 -23 0 -20
-92 -213 -101 -213 -5 0 -9 -6 -9 -13 0 -21 -91 -146 -156 -213 -139 -144
-255 -201 -462 -229 -181 -25 -411 -54 -472 -61 -19 -2 -51 -6 -70 -9 -19 -3
-53 -8 -75 -11 -22 -3 -65 -9 -95 -14 -104 -17 -135 -20 -125 -13 6 5 15 15
20 24 6 9 29 44 53 78 23 34 42 64 42 66 0 2 18 34 39 72 21 37 56 109 76 158
20 50 41 99 46 110 14 32 66 245 73 300 4 28 9 57 11 65 4 12 17 171 17 205 0
112 -18 297 -37 385 -4 14 -8 34 -10 45 -4 21 -13 59 -14 61 -1 2 -93 -21
-306 -76 -110 -29 -206 -52 -212 -53 -7 0 -13 -1 -13 -2 0 -1 14 -55 31 -120
17 -64 27 -121 22 -124 -4 -4 -95 -72 -200 -151 -126 -93 -190 -147 -184 -154
7 -9 17 -46 36 -126 2 -8 13 -46 25 -85 12 -38 23 -77 24 -85 3 -12 23 -84 31
-110 1 -3 5 -18 9 -35 4 -16 11 -40 16 -51 16 -42 -134 -205 -315 -342 -92
-70 -335 -179 -437 -196 -15 -3 -31 -7 -35 -9 -16 -9 -121 -20 -223 -22 -95
-2 -246 13 -299 30 -12 3 -33 8 -47 11 -15 3 -37 10 -48 16 -12 6 -22 11 -23
10 -4 -2 -34 8 -100 35 l-62 25 -16 66 c-8 37 -17 74 -19 83 -3 9 -18 67 -35
130 -17 63 -32 123 -34 134 -3 18 -28 107 -32 113 -3 4 -104 20 -170 27 -118
13 -130 15 -165 20 -19 2 -60 7 -90 11 -30 3 -59 9 -63 13 -4 5 -15 32 -23 62
-8 30 -16 59 -18 64 -2 6 -6 24 -11 40 -10 38 -24 57 -37 48 -10 -6 -127 -36
-343 -89 -172 -43 -165 -39 -153 -82 31 -118 136 -358 188 -431 11 -16 20 -32
20 -35 0 -7 96 -140 130 -180 159 -189 345 -344 530 -442 30 -16 57 -32 58
-36 2 -5 8 -8 13 -8 6 0 36 -12 67 -26 31 -15 104 -44 161 -64 l103 -37 37
-89 c65 -157 154 -266 278 -340 95 -56 213 -99 331 -120 12 -2 34 -6 50 -9
149 -26 649 -27 917 0 17 1 66 5 110 9 76 6 229 22 305 31 19 3 58 7 85 10 28
3 66 8 85 10 55 7 292 37 325 41 17 2 50 6 75 10 25 3 59 7 75 9 17 2 44 6 60
9 17 2 57 8 90 12 33 5 62 9 65 9 3 1 37 5 75 10 39 5 72 9 75 10 3 1 30 5 60
9 46 6 142 23 225 40 35 8 159 47 190 61 17 7 53 23 80 35 107 48 248 144 348
239 41 39 155 176 225 271 18 24 53 80 99 158 34 57 188 363 201 397 6 17 34
86 62 155 49 119 141 352 285 725 36 94 70 179 75 190 5 11 29 72 54 135 24
63 61 158 81 210 21 52 71 181 111 285 41 105 79 199 84 210 4 11 35 90 68
175 86 222 140 361 254 650 280 713 275 701 304 825 20 91 22 102 44 280 8 69
5 521 -4 580 -3 17 -8 59 -11 95 -5 60 -8 88 -20 180 -3 19 -7 55 -10 80 -3
25 -8 63 -12 85 -3 22 -7 49 -8 60 -2 11 -8 54 -14 95 -6 41 -13 95 -16 120
-3 25 -8 56 -10 70 -3 14 -7 43 -10 65 -5 42 -14 112 -20 155 -2 14 -7 48 -11
75 -3 28 -8 59 -10 70 -2 11 -6 38 -9 60 -3 22 -8 56 -10 75 -3 19 -7 57 -10
83 -2 27 -7 51 -9 55 -2 4 -7 39 -11 77 -3 39 -8 77 -10 85 -6 21 -13 67 -19
122 -6 44 -8 63 -21 153 -3 19 -7 52 -10 73 -3 20 -7 51 -10 67 -3 17 -7 53
-10 80 -3 28 -8 57 -10 65 -2 8 -7 40 -10 70 -3 30 -8 62 -10 70 -3 13 -11 68
-20 150 -2 14 -6 43 -10 65 -10 61 -13 85 -21 150 -3 33 -8 69 -10 80 -2 11
-6 40 -9 65 -3 25 -8 56 -10 70 -3 14 -7 48 -10 75 -3 28 -8 57 -10 65 -2 8
-7 42 -11 75 -3 33 -8 62 -9 65 -2 3 -6 34 -10 70 -4 36 -9 74 -11 85 -5 24
-12 78 -19 130 -2 22 -8 60 -11 85 -4 25 -8 52 -9 60 -1 8 -5 35 -8 60 -18
124 -37 260 -42 300 -3 25 -7 56 -10 70 -3 14 -7 48 -10 75 -13 115 -32 194
-46 181z"/>
<path d="M7385 9044 c-49 -14 -97 -27 -105 -29 -8 -1 -40 -10 -70 -18 -30 -9
-116 -32 -190 -51 -74 -19 -180 -47 -235 -61 -55 -15 -107 -28 -116 -30 -17
-3 -25 -6 -206 -55 -62 -17 -121 -33 -130 -35 -16 -3 -85 -21 -323 -84 -41
-11 -138 -36 -215 -56 -77 -20 -153 -40 -170 -45 -16 -5 -41 -12 -55 -14 -38
-8 -183 -46 -200 -53 -8 -3 -24 -8 -35 -10 -11 -2 -90 -22 -175 -44 -85 -23
-162 -42 -170 -44 -8 -2 -58 -15 -110 -29 -52 -14 -171 -45 -265 -70 -93 -24
-223 -58 -288 -76 -64 -17 -127 -33 -139 -35 -11 -3 -35 -9 -52 -14 -23 -8
-274 -74 -361 -95 -5 -2 -23 -6 -40 -11 -136 -36 -634 -167 -649 -170 -22 -5
-314 -82 -501 -132 -71 -19 -137 -36 -145 -38 -56 -12 -146 -38 -152 -43 -3
-4 -9 -34 -12 -67 -9 -76 -16 -143 -21 -175 -2 -14 -7 -50 -10 -80 -3 -30 -8
-62 -11 -70 -3 -12 -387 -240 -599 -356 -11 -6 -91 -52 -179 -103 -87 -50
-160 -91 -162 -91 -2 0 -33 -18 -69 -40 -36 -22 -67 -40 -69 -40 -2 0 -34 -18
-70 -40 -36 -22 -68 -40 -71 -40 -2 0 -29 -16 -59 -35 -30 -19 -58 -35 -61
-35 -3 0 -18 -8 -33 -18 -189 -127 -194 -131 -286 -217 -146 -138 -239 -363
-239 -585 -1 -36 12 -183 18 -210 2 -8 6 -32 10 -53 3 -21 12 -60 19 -87 l13
-48 -100 -79 c-54 -43 -104 -83 -110 -88 -7 -6 -29 -24 -50 -39 -26 -20 -36
-34 -32 -47 3 -9 8 -26 10 -36 2 -10 22 -88 44 -173 22 -85 56 -218 76 -295
20 -77 40 -154 46 -171 5 -17 11 -40 13 -51 2 -11 16 -64 30 -119 15 -54 28
-108 31 -119 2 -11 10 -45 19 -75 8 -30 38 -145 66 -255 28 -110 57 -221 65
-247 7 -25 11 -48 9 -51 -5 -4 334 -97 355 -97 12 0 18 -14 66 -132 59 -148
208 -333 360 -449 197 -149 436 -244 640 -254 79 -4 213 -7 705 -20 63 -2 237
-6 385 -10 597 -17 828 -7 1073 49 46 10 174 58 208 77 132 74 220 168 259
279 15 41 111 407 120 455 2 11 22 99 45 195 23 96 44 186 46 200 3 14 23 104
44 200 21 96 41 186 43 200 9 46 65 293 97 425 18 72 33 135 34 140 1 6 7 26
13 45 10 33 39 152 46 195 2 11 7 31 10 45 4 14 16 66 28 115 118 504 277 719
544 739 129 9 300 -68 462 -211 93 -81 228 -220 343 -353 11 -13 72 -78 134
-144 139 -149 204 -220 306 -336 105 -120 138 -157 158 -178 12 -14 41 -48 65
-75 23 -28 53 -62 67 -76 14 -14 43 -46 64 -71 137 -156 381 -421 536 -580 73
-74 190 -163 190 -144 0 4 6 2 13 -5 20 -16 134 -39 201 -40 51 -1 125 8 202
23 164 33 435 159 804 373 152 88 197 114 210 123 19 12 119 70 145 84 11 6
31 18 45 27 31 20 181 109 233 138 87 49 105 60 167 98 36 22 85 51 110 65
297 166 407 251 519 403 28 39 55 75 59 80 44 58 148 307 166 400 4 17 9 41
12 55 11 46 13 275 4 320 -26 124 -37 100 120 250 114 109 140 138 135 155 -8
28 -66 247 -70 265 -2 8 -31 120 -65 249 -34 128 -64 245 -66 259 -3 14 -7 29
-10 34 -3 4 -7 16 -9 25 -5 23 -79 312 -99 383 -12 47 -52 198 -87 331 -8 30
-14 37 -42 42 -17 3 -59 11 -92 17 -33 6 -73 13 -90 15 -46 7 -138 25 -141 28
-1 1 -17 46 -34 100 -112 349 -283 551 -557 657 -29 11 -53 18 -53 15 0 -2
-17 2 -37 9 -21 7 -65 17 -98 21 -33 5 -69 10 -80 11 -31 5 -530 13 -1130 19
-297 2 -552 4 -567 5 -23 0 -43 23 -148 170 -78 109 -128 170 -138 169 -9 0
-57 -12 -107 -25z m1925 -917 c106 -17 238 -93 336 -193 110 -112 196 -254
249 -409 16 -48 19 -60 29 -105 3 -11 7 -24 10 -28 3 -5 7 -19 9 -33 5 -23 35
-139 72 -274 9 -33 18 -67 20 -75 2 -8 11 -42 20 -75 9 -33 18 -67 20 -75 2
-8 12 -49 24 -90 19 -73 68 -259 76 -290 2 -8 24 -89 48 -180 62 -229 66 -252
62 -354 -6 -145 -26 -237 -80 -379 -57 -146 -159 -292 -239 -342 -12 -7 -100
-61 -196 -121 -96 -60 -183 -113 -192 -119 -10 -5 -97 -59 -193 -120 -96 -60
-183 -114 -193 -120 -9 -5 -84 -52 -167 -104 -324 -204 -490 -263 -711 -254
-186 7 -319 76 -464 239 -89 100 -259 292 -286 323 -16 19 -38 44 -49 55 -11
12 -49 55 -85 96 -36 41 -69 80 -75 86 -5 6 -26 29 -45 50 -76 85 -208 233
-260 293 -30 34 -66 75 -80 90 -14 15 -50 56 -80 91 -30 34 -64 72 -75 84 -11
12 -49 55 -85 96 -63 73 -111 127 -159 179 -13 14 -44 50 -70 80 -25 29 -55
63 -66 75 -45 50 -114 127 -175 196 -188 214 -237 269 -254 290 -33 41 -116
172 -116 184 0 7 -5 17 -12 24 -15 15 -36 71 -59 162 -35 137 -10 301 56 372
14 15 25 31 25 35 1 12 89 77 145 106 39 20 134 56 165 62 3 1 30 7 60 13 88
19 103 22 140 28 19 2 42 6 50 9 8 2 29 6 45 9 17 3 84 14 150 26 66 11 136
23 155 26 19 3 62 10 95 16 33 5 74 12 90 15 17 2 71 11 120 19 50 9 101 17
115 19 14 2 79 12 145 24 66 11 143 23 170 26 28 4 59 9 70 12 11 3 31 7 45 8
23 3 132 20 190 30 14 3 45 8 70 11 43 6 55 8 110 18 14 3 43 8 65 11 22 3 65
10 95 15 30 5 75 12 100 15 25 3 68 10 95 15 28 5 68 12 90 15 22 3 65 10 95
15 61 11 110 18 155 24 17 3 86 14 155 26 69 12 145 24 170 27 25 3 46 7 48 8
4 4 178 -3 212 -8z m-4855 -1017 c94 -35 161 -91 212 -178 31 -53 61 -131 69
-180 3 -20 9 -41 12 -46 3 -5 6 -68 7 -139 2 -141 -9 -221 -70 -487 -20 -85
-38 -168 -41 -185 -5 -27 -25 -119 -41 -185 -3 -14 -7 -30 -9 -36 -1 -7 -10
-45 -19 -85 -9 -41 -19 -87 -22 -104 -3 -16 -11 -57 -19 -90 -18 -74 -28 -118
-38 -170 -6 -27 -122 -552 -142 -635 -8 -36 -16 -74 -18 -85 -3 -11 -30 -132
-61 -270 -31 -137 -59 -263 -61 -280 -3 -16 -12 -55 -19 -85 -8 -30 -16 -69
-19 -86 -17 -98 -69 -272 -96 -323 -79 -148 -223 -260 -413 -322 -132 -43
-199 -49 -447 -43 -129 2 -262 7 -295 9 -56 3 -108 6 -380 20 -55 3 -143 7
-195 10 -52 3 -153 8 -225 11 -148 6 -152 6 -220 29 -168 57 -374 225 -490
400 -73 109 -88 147 -146 374 -55 213 -69 268 -74 291 -2 8 -17 67 -33 130
-17 63 -63 241 -102 395 -39 154 -78 305 -87 335 -8 30 -16 64 -18 75 -2 11
-4 20 -5 20 -1 0 -3 8 -5 17 -26 134 -24 318 5 435 24 96 82 223 127 274 90
105 166 154 328 214 128 47 532 197 565 210 19 8 240 89 490 180 250 91 489
179 530 194 116 44 557 202 715 257 55 19 109 39 120 44 46 20 265 90 301 96
21 3 57 9 79 13 71 13 186 4 250 -19z"/>
<path d="M5644 5477 c-28 -16 -42 -35 -79 -112 -49 -103 -144 -406 -191 -607
-8 -37 -13 -55 -28 -113 -15 -54 -61 -248 -71 -300 -3 -11 -21 -90 -40 -175
-20 -85 -38 -166 -41 -180 -3 -14 -25 -119 -50 -235 -56 -259 -53 -244 -59
-280 -3 -16 -8 -38 -11 -47 -3 -9 -7 -27 -9 -39 -3 -13 -14 -68 -26 -123 -11
-56 -23 -112 -25 -126 -3 -14 -7 -33 -10 -42 -3 -10 -2 -18 2 -18 3 0 124 31
268 69 143 38 295 79 336 89 41 11 137 37 213 57 76 20 146 38 155 40 9 2 69
18 132 35 132 35 528 140 550 146 8 2 92 24 185 48 94 25 253 67 354 94 l183
48 -63 74 c-35 41 -71 82 -79 90 -18 19 -53 60 -135 155 -33 39 -62 72 -65 75
-5 5 -196 223 -240 274 -14 16 -36 41 -50 56 -14 15 -38 43 -55 61 -16 19 -64
72 -105 119 -42 47 -89 100 -106 118 -16 19 -45 51 -64 72 -278 298 -453 476
-536 545 -26 22 -52 45 -58 50 -23 23 -103 72 -132 82 -21 8 -36 8 -50 0z"/>
</g>
</svg>
